<?xml version="1.0" encoding="utf-8"?>
<!-- Generator: Adobe Illustrator 17.1.0, SVG Export Plug-In . SVG Version: 6.00 Build 0)  -->
<!DOCTYPE svg PUBLIC "-//W3C//DTD SVG 1.1//EN" "http://www.w3.org/Graphics/SVG/1.1/DTD/svg11.dtd">
<svg version="1.1" id="Layer_1" xmlns="http://www.w3.org/2000/svg" xmlns:xlink="http://www.w3.org/1999/xlink" x="0px" y="0px"
	 viewBox="0 0 792 612" enable-background="new 0 0 792 612" xml:space="preserve">
<path fill-rule="evenodd" clip-rule="evenodd" fill="#223266" d="M327.6,148.9c12.7,0,10.7-11.4,56.3-26c1-0.3,4.8-0.3,5.8,0.1
	c18.2,7.4,42.3,31.4,43.9,40.2c3.7,20.5-12.4,53-8.1,64.6c2.2,5,21.5,15,25.6,16.2c-11.5,7-27.2-1.5-32.2,0
	c-2.1,5.7,3.2,6.8,3.2,10.6c0,3.8-17,8.1-13.4,17.8c2.5,1.1,10,1.5,10,7.8c0,3.4-3.4,3.6-4.5,4.9c0.6,3.2,1.9,9.5,6.6,9.5
	c4.7,0,8.3-3.2,9.5-4c1.1,1.7,0.8,2.5,2.8,2.3c0.2,2.5,0.2,4.9,0.2,4.9s1.6,0.6,3.5-0.2c-2.4,1.7-6,5.2-4.8,6
	c2.3,1.3,3.9-1.9,7.4-1.6c-2.4,2.8-7.6,2-8.5,7.4c3.4,0.6,32,2.1,39,2.1c7,0,14.4-0.8,15.7-1.5c-0.8-5.3-7.2-6.8-9.1-10.2
	c-1.9-3.4-4.8-13.4-6.2-16.8c-3.2-8.1-8.3-6.7-8.3-15c0-3.6,5.2-5.6,8-9.8c2.8-4.2,2.7-13.8,7.7-16c8.7-0.4,30.3,8.7,30.3,18.4
	l0.3,51.7c0,0,1.3,0.6,8.8,1c7.5,0.4,24.7,0.2,27,0c2.2-0.2,10.6-4,10-15.5c-0.6-11.5-2.9-24.4-2.8-25.9c1.1-1.9,3.2-4.2,3.2-9.1
	c0-4.9-2.2-13.8-6.7-15.4c-1.8-0.7-4.5-0.3-5.5-0.5c-1-0.3-7.4-3.2-9.6-4.2c-2.2-1-15.4-10.3-19.3-12.6c-3.9-2.3-11.6-6-12.6-7.7
	c-1-1.7,1.4-9.2,3.5-14.6c2.2-5.4,1-8.5,1.6-10.1c0.6-1.6,2.6-6.4,5.1-6.4c2.5,0,9.6-0.7,11.4-0.3s3.4,1.7,4.7,2.2
	c1.3,0.5,3.4,0.9,4.2,1.1c0.9,0.3,26.3,26.9,28.4,29.2c2.1,2.3,8.7,7.3,10.3,9.9c7.3,11.2,1.7,28.4,6.3,33.9
	c2.8,3.3,7.2,4.3,8.2,5.1c-0.8,8.4,4.9,27.1,4.5,30c-4.7,0.7-11.5,0.2-11.2,2.8c0.3,2.6,3.2,16.8,3.5,20.1
	c0.3,3.3-0.6,8.8-13.5,10.1c-12.9,1.3-48.9,2-49.9,3.6c-1,1.6-0.5,11.2,0.3,14.2c-2.9,2.2-5.5,3.9-5.5,3.9l-0.3,25.8
	c0,0-2,1.3-5.4,1.3c-3.4,0-22.4-4.5-24.1-3.1c-5.8,2.8,30,27.2,42.1,36.7c1.3,1.2,1.2,2.5-1.2,4c-2.4,1.5-19.3,9.8-21.8,12.4
	c-10.4,10.7-6.6,9.3-9.5,11.4c-2.9,2.1-4.3,3.5-4.3,5.5c0,2,13.9,3.5,17,3.5c3.1,0,31.2,9.3,37.4,9.3c6.1,0,15.6,0,15.6,0
	s8.3-1.3,12.3-1.3c4,0,9.5,2,12,2.2c4,0,6-11.1,12.6-11.1c1.8,0,4.4,1.8,5.8,1.9c-3.5,1.4-7.5,6.7-8.6,9.7c-1.1,3-4.7,11.4-5.9,13.2
	c-1.2,1.8-2.8,6.3-10.4,6.3c-7.7,0-49,0-49,0s-11.3-0.1-17.4-1.9c-6.1-1.8-6.9-5.8-13.8-5.8c-6.9,0-7.1,4.4-7.6,6.9
	c-2.2,0.6-32.8,3.9-36.7-2.6c0-4.1,0-12.5,0-12.5s2-8,6.5-11.7c4.4-3.6,5-1.4,8.2-4.2c1.3-1.1,7.1-18,3.1-23
	c-5.3-6.2-35.6-15.7-72.9-15.7c-26.6,0-64.1,7-67.4,14c-1,3.2,2,20.8,3,22.2s10,5,12.8,10.2s3.5,12.5,2.2,18.5
	c-0.5,2.5-2.8,2.5-4.8,3.2s-19.5,0.8-21.8,0.2s-7.8-0.8-8.8-1.8s-2.2-5.8-7.8-5.2s-14.5,5-17.8,6c-4.8,0-66.5,0-66.5,0
	s-4.2-0.8-8.8-8.5c-4.5-7.8-4.2-10.8-5.7-13.2s-7.5-8-5-9.2c3-0.2,8-1,14.5,11.2c5.5-0.2,10-1.8,16.2-1.8s17.8,2.2,24,2.2
	c6.3,0,40.3-12.5,54.8-11.5c2.6-0.1,1.8-3.7,0-3.8c-2.2-0.1-5.1-0.1-7.2-2c-2.1-1.9-4.3-4.5-6.8-5.9c-2.5-1.4-9.2-8.8-12.8-8
	c-3.6,0.8-13.6,3.2-22.3,3.2c-8.7,0-16.3-0.3-22.9-4.3c-6.7-4-12.8-11.4-19.4-17c-6.6-5.6-24-23.1-24-42c0-10.5,9.4-23.7,10.5-23.9
	c1.5,0,30.1,2.2,34.8,1.6c-11,8.6-26,18.5-26,41.4c0,22.9,21,26.6,36.2,30.9c2.4,0.7,3.6-1.9,2.4-3.3c-4.8-5.1-22.2-20.6-22.2-37.2
	s26.9-34.3,31-33.8c3.5,3,17,11.7,26.5,23.2c-12.4,0.5-43.8,3.1-43.8,27.8c0.5,13.7,12.7,18.8,44.7,18.8c16.6,0,37.9-28.2,37.9-63.6
	c0-24.5-9-37.7-22-52.7c-17.2-19.7-38.8-39.2-66.8-68.8c0,0-7.5-0.2-11.5,2.2c0.5-3.8,0.5-3.8,0.5-3.8s-4.2,0.5-7.8-1
	c3.5-1.2,4.2-2.2,0.5-4.5c3-0.2,4.8-2.2,3.8-6c5-0.5,9-1.8,17.8-7.5s22.5-21.8,32-28.8s31.2-16.8,34.8-17c0.8-4.5,2-25,7.5-25.8
	C319.2,143.2,324.7,148.9,327.6,148.9z M451.9,344.8c4,1.6,26,8.9,29.5,8.9c0.7-3.3,0-12.6,0-12.6S455.8,341.2,451.9,344.8z"/>
<path fill="#09824F" d="M367.2,133.7c1.6-0.8,10.3-5,12.3-5.5c2-0.4,7-0.9,9,0c19.5,9.1,39.7,29.9,40.8,33.1
	c1.1,3.2-0.3,16.2-0.3,17.6c0,2.2-1.5,2.1-2.3,1c-0.8-1-16.6-19.5-28.9-27.5c-12.3-8-28.9-15.7-30.5-16.3
	C365.6,135.5,365.9,134.4,367.2,133.7z"/>
<path fill="#F3EA05" d="M425,184.1c0.8,3,0.5,5.1,0,7.6c-0.5,2.4-5.8,22.4-6.2,27.5c-3.5-1.7-6.4-3.6-8.9-5.7
	c-2.4-2.1-44-35.1-51.2-41.1c-7.2-6-21.1-16.3-22.5-17.6c-1.4-1.3,0-3.2,0-3.2c3.3-3.2,10-6.3,14.3-8.6c4.2-2.3,7.8-5,8.9-5
	s4-0.5,5.7,0.6c36.8,16.9,56.7,38.3,59.9,45.1"/>
<path fill="#09824F" d="M314,161.4c-0.5-1.3,0.5-8.7,2-11.1c1.1-2.5,2.5-1.8,3.8-0.9c16.8,12.6,111.1,87.2,116.1,92.5
	c-3.3,0.6-12.7,2.4-18.3-4.4c4.2-0.4,10.9,2.2,9.3,0.9c-4.1-3.3-18-15.8-27.8-22.9c-7.1-5.1-45.9-30.6-67.8-44.1
	c-8.2-5.1-15.4-7.7-15.6-7.9C314.9,163.1,314.5,162.7,314,161.4z"/>
<path fill="#09824F" d="M210.7,400.1c-1-8.3-5.2-30,18.9-47.3c-5.5-0.4-21.5-2.8-23.3-1C203.4,356.5,190.4,382.5,210.7,400.1z"/>
<path fill="#09824F" d="M232.1,422.5c-1.3-1.1,0.1-2.9,2-2.2c1.9,0.7,18.1,9.6,49.4,5.4c-6,3.5-11.6,7.9-25.9,6.4
	C243.3,430.7,239.1,428.5,232.1,422.5z"/>
<path fill="#09824F" d="M260.6,418.7c-0.5,1.5,1.9,3.6,5.5,4.1c3.6,0.4,6.1,0.1,6.4-1.2c0.3-1.3-3.9-0.8-5.4-1.5
	C265.7,419.4,261.3,416.2,260.6,418.7z"/>
<path fill="#09824F" d="M237.9,393.8c1.3,1.2,2.2-0.4,2.2-1.2c0-0.7,6.1-25,37.7-25.5c-2.9-3.8-13.8-15.7-17.2-16.1
	c-3.4-0.4-26.9,18.3-26.9,31.8C233.7,390.1,237.2,393.2,237.9,393.8z"/>
<path fill="#FFFFFF" d="M315.7,446c0.1,1.4,1.4,2.2,3.5,1.9c2.1-0.3,7.7-1.4,7.3-3c-0.6-1.3-4.3,0.1-6.3,0.6
	C318,446,316.2,445,315.7,446z"/>
<path fill="#F3EA05" d="M318.3,450.5c-0.4,1.4,2.1,1.8,4.8,1.5c2.7-0.3,5-0.4,4.3-1.9s-2.4-1.3-4.5-1
	C320.9,449.4,318.6,449.3,318.3,450.5z"/>
<path fill="#FFFFFF" d="M319.8,455c-0.5,1.1,3,1.3,5.4,1.5c2.5,0.2,5.3-0.2,4.9-1.5c-0.4-1.3-3.3-0.9-5.1-1S320.4,453.8,319.8,455z"
	/>
<path fill="#F3EA05" d="M342.9,466.1c-0.1,2.6-3.5,4-11.7,4s-19.5-2.5-25.9-2.5s-16.6,4.9-20.8,4.9c-4.1,0-49.2,0-52.7,0
	c-3.5,0-13.1,0.8-13.1-5.1c0-2,7-3.2,8.7-3.2c1.7,0,16.6,3.1,20.9,3.1c11.6,0,43.6-10.8,59.3-10.8c11.5,0,14.3,3.3,19.4,3.3
	c5,0,5-2.1,6.5-2.1C335,457.6,343,462.4,342.9,466.1z"/>
<path fill="#FFFFFF" d="M343.9,472.1c0,0,0.5,4.5,0,5.8c-0.5,1.3-1.2,1.9-2.5,1.9c-1.3,0-19.3,0-19.3,0s-1.5,0.2-3.3-0.9
	c-1.8-1.2-4-7.2-11.1-7.2c-7.1,0-25.6,8.5-28.8,8.5c-3.2,0-52.3-0.8-54.6-1.2s-2.3-0.3-4-1.5c-1.7-1.2-4.9-4.5-5.9-6.5
	c-1.1-2.1-2.6-6.5-4-8.2c-1.3-1.7-4.6-6-3.6-7.1c1.7-0.5,5.9,7.3,6.1,8.2c0.2,0.9,2.2,4.9,3.2,6.3c1,1.4,2.2,4.7,6.1,4.7
	c3.9,0,52.6,1,56,0.8c7.2,0,25.4-5.7,29.8-5.7c4.4,0,13.3,2,15.8,2S343.9,472.1,343.9,472.1z"/>
<path fill="#FFFFFF" d="M484.1,447.1c-0.1,1.4-1.4,2.2-3.5,1.9c-2.1-0.3-7.7-1.4-7.3-3c0.6-1.3,4.3,0.1,6.3,0.6
	C481.8,447.1,483.5,446.1,484.1,447.1z"/>
<path fill="#F3EA05" d="M481.3,451.6c0.4,1.4-2.2,1.8-5.1,1.5c-2.9-0.3-5.3-0.4-4.5-1.9c0.8-1.5,2.6-1.3,4.7-1
	C478.6,450.5,480.9,450.4,481.3,451.6z"/>
<path fill="#FFFFFF" d="M479.7,455.9c0.5,1.1-3,1.3-5.4,1.5c-2.5,0.2-5.3-0.2-4.9-1.5c0.4-1.3,3.3-0.9,5.1-1
	C476.3,454.9,479.2,454.7,479.7,455.9z"/>
<path fill="#F3EA05" d="M456.4,467.3c0.1,2.6,8.7,4.1,16.9,4.1c8.2,0,12.1-1.6,18.6-1.6c6.4,0,19.5,4.8,23.6,4.8
	c4.1,0,54.7,0,58.2,0c3.5,0,7.2,0.6,7.2-5.3c-3.1-0.6-6.2-2.7-11.1-2.7c-5,0-5.6,2.7-18.8,2.7c-17.4,0-39.9-11.6-59.3-11.6
	c-11.5,0-14.3,3.3-19.4,3.3c-5,0-3.4-1.5-6.8-1.5C460.8,459.4,456.3,463.6,456.4,467.3z"/>
<path fill="#FFFFFF" d="M455.9,472.1c0,0-0.6,5-0.2,6.3c0.5,1.3,5.4,2.7,6.8,2.7c1.3,0,15.2,0,15.2,0s1.5,0.2,3.3-0.9
	c1.8-1.2,4-6.4,11.1-6.4c9.3,0,22.1,7.8,25.3,7.8c3.2,0,56.9,1.1,59.1,0.8c2.2-0.3,1.9-0.4,3.6-1.5c1.7-1.2,4.5-5.5,5.6-7.6
	c1.1-2.1,2.8-6.4,4.1-8.1c1.3-1.7,4.4-5.8,3.4-6.9c-2.6,0-5.6,6.5-5.8,7.4c-0.2,0.9-1.7,4.7-2.7,6.1c-1,1.4-2.4,5.5-6.2,5.5
	c-3.9,0-53.4,0.2-56.8,0c-7.2,0-25.4-5.2-29.8-5.2c-4.4,0-16.9,1.9-19.5,1.9C469.8,473.8,455.9,472.1,455.9,472.1z"/>
<path fill-rule="evenodd" clip-rule="evenodd" fill="#09824F" d="M287.9,428.6c2.8,2,18.5,14,19.6,14.8c1.6-0.2,15.5-2.8,17.5-6.5
	c2-3.6-0.5-8.7,1.1-10.6c1.5-1.9,13-15.1,70.8-15.1s75.3,15.2,78.8,18.2c1.5,2.5-8.7,11.3,8.4,14c0,0,4.4,0.7,6.3,0
	c1.8-0.7,4.3-5.3,5.8-6.3s20.2-13.8,22.5-14.7c2.3-0.8,1.3-2.8,0-4.3c-1.3-1.5-37.2-29.8-38.2-30.5s-3.6-0.7-1.8,2.5
	s4.6,7.3,5.4,9.3c0.8,2-2,4-4.3,2.7c-2.3-1.3-38.1-18.5-40.1-18.3c-3.3,2.2-22.3,24.8-24.7,25.5c-3.3-1.5-50-26.3-60.5-26.3
	s-32.3,18-36.2,21c-3.9,3-28.2,23-30.4,24.3"/>
<path fill-rule="evenodd" clip-rule="evenodd" fill="#F3EA05" d="M365.3,380.1c8.4,4,45.1,22,49.3,21c2.8-2.8,21.5-23.4,24.8-23.4
	c3.3,0,27.4,15,35.1,15.2c-0.5-3.3-5.7-11.5-9.2-13.8c-3.5-2.3-44.7-9.6-46.8-8.9c-1.4,0.9-1.9,1.6-1.2,3c0.7,1.4,3.3,13.3,2.5,15.7
	c-3.9,0.2-20.5-10.3-33.8-11C372.8,377.3,368.4,379.2,365.3,380.1z"/>
<path fill-rule="evenodd" clip-rule="evenodd" fill="#09824F" d="M411.9,379.7c0.5-4.2,0.9-6.4-0.9-9.4c-1.9-3-33.7-6.5-36.7-10.2
	c-0.9-1.9,0.7-1.9,3-1.6c2.3,0.2,126.5,21,131,21.3c0.2-3.7,0-22.2-0.9-25.3c-3.5-1.9-17.3-7-19.9-5.6c-1.6,3.5-1.2,5.8-0.7,7
	c0.5,1.2,4.9,3.7,5.8,8.3c-5.6-2.5-73.2-25.6-83.5-28.9c-10.3-3.3-45.1-18.5-61.3-18.5c-10.5,0-18.5,7.3-20.1,8.7
	c-1.6,1.4,13.4,39.8-4.8,67.8c10.4-7.5,30-20.8,56-20.8C394.2,372.4,409.5,378.5,411.9,379.7z"/>
<path fill-rule="evenodd" clip-rule="evenodd" fill="#FFFFFF" d="M486.7,345.4c4.4,0,20.7,2.4,26.2,5.6c0.9-4.9-2.1-22.9-2.1-22.9
	s-14.9-3.4-21-3.3c-4.4,0.1-4,1.7-4.2,3.6C485.3,330.3,486.5,343.3,486.7,345.4z"/>
<path fill-rule="evenodd" clip-rule="evenodd" fill="#FFFFFF" d="M556.4,273.7c0.5,4.7,2.1,18.5,1.9,20.1c4.2-0.5,14.7-0.2,25.3,4.2
	c-0.5-6.5-2.3-20.1-3.3-21.5c-3.3-2.3-7.7-5.1-13.6-4.9C560.9,271.8,558.3,272.5,556.4,273.7z"/>
<path fill-rule="evenodd" clip-rule="evenodd" fill="#09824F" d="M559.7,298c1.2-3,11-0.5,13.3,2.1c0.2,6.1,2.1,26.4,4,28.1
	c0,1.6,1.4,2.3-4,2.8c-5.4,0.5-52.2,4.7-55.9,4c-0.9-4.7-0.6-8-2-9.2s-2.2-0.9-3.2-1.5c-1-0.5-3.2-3.9-2.8-6.7
	c4.1,0.2,22.9,0.2,25.5,0.2S559.3,319.9,559.7,298z"/>
<path fill-rule="evenodd" clip-rule="evenodd" fill="#FFFFFF" d="M571.4,267c0-2.6,0.6-17.6-3.4-27.4c-2.5-5.9-13.6-15.3-16.3-18.4
	c-5.2-5.9-9.8-11.4-11.8-13.9s-5.8-5.6-6.9-6.6s-4.4-2.2-5.6,0s-3.4,5.6-3.4,11.4s3.8,7.1,4.2,7.6s1.8,0.4,2.3,0.1
	c0.9-0.6,1.2-1.4,1.2-2.6s-1.3-2.5-1.4-5.4c0-1.5,1.3-2,2-2c0.7,0,0.5,1.2,1.5,2c1,0.7,2.6,1,2.4,2.1c-0.1,1.1-2,1.6-1.9,2.4
	c0.1,0.7,1.2,1.1,1.2,2.8s-2,4.7-5.5,4.7s-5.9-4.3-6.9-5.4c-2.5,2.1-5.3,3.6-8.5,3.6c-3.2,0-3.9-0.6-4.1-1.1c-0.2-0.6-0.3-1.2,0-1.9
	c1.3,0.4,8.8-0.3,8.6-4.9c0-2.4-3.6-3.1-5.1-3.3c-1.4-0.2-5.3-0.8-7.2-0.1c-0.1,1.7-2.2,3.6-2.5,4.6c-0.1,2.2-1.9,5.6,0,6.5
	c1.9,0.9,9.3,4.7,11.4,6.2c2.1,1.4,13.8,9.7,16.7,11c2.9,1.3,8.2,4.9,11,4.7c2.9-0.1,11.8,0.2,13,0.3c-0.4,1.9-3,1.8-2.6,3.3
	c0.3,1.5,2.3,7.8,3.4,10.7c1.1,2.9,1.1,5.7,1.4,7.2c0.3,1.4,2.6,2.1,4.2,2C564.6,267.4,569.1,266.5,571.4,267z"/>
<path fill-rule="evenodd" clip-rule="evenodd" fill="#223266" d="M543.8,240.2c0.4-2.3-6.2-11.1-7.8-13.7c-0.9-0.3-2.6-1.2-2.2,1.5
	C534.2,230.9,535.4,238.3,543.8,240.2z"/>
<path fill-rule="evenodd" clip-rule="evenodd" fill="#FFFFFF" d="M510.8,208.1c1,0.8,3.1,1,3.1,0c0-1,0.8-11.7,1.8-12.8
	c-0.3-1.1-3.2-1.3-4.3,2.1C510.3,200.8,509.8,206.1,510.8,208.1z"/>
<path fill-rule="evenodd" clip-rule="evenodd" fill="#FFFFFF" d="M522.2,204c-0.7,1.9-0.8,5.3-1.7,5.6c-0.9,0.3-2.1,0.7-2.4,0
	c0-1.2-0.7-6.8,0-8s2.4-5.8,4.6-5.8s2.6,0.9,1.4,2.9C522.9,200.7,522.2,204,522.2,204z"/>
<path fill-rule="evenodd" clip-rule="evenodd" fill="#FFFFFF" d="M503.7,321.4c0-3.2,0.9-52.5,0.9-55.2c0-2.8,0-7.3-2.8-9.7
	c-2.8-2.4-16.3-8.8-18.7-9.5c-2.4-0.6-3.7-0.4-4.7,1.1c-1.1,1.5-1.3,4.3-2.6,6.7c-1.3,2.4-1.7,7.3,0,8c1.7,0.6,3.2-0.2,4.9-0.6
	c1.3-1.9,3.3-3.9,4.8-3.9c1.5,0,3.9,3.9,0,7.7c-3.9,0.4-13.6-0.4-15.3,0.4c-1.7,0.9-4.3,2.3-3.4,5.2c0.9,2.9,7.1,6.6,8,8.7
	c0.9,2.1,5,15,6.9,17.7c1.9,2.7,3.9,6.3,8.5,9.8c2.3,1.8,2.2,12.7,3,13.5C494.1,322.2,503.7,321.4,503.7,321.4z"/>
<path fill-rule="evenodd" clip-rule="evenodd" fill="#09824F" d="M420.9,314c3.6,2.9,8.9,9.6,11.2,10.8c2.2,1.2,9.8,10.7,10.8,13.1
	c3.1,0.3,37.5,0.3,38.8-1.2c1.3-1.5-0.6-8.6,0-9.8c0.6-1.2,0.7-5.1,5.9-6.2c0.3-1.9,0.3-4.5-0.9-4.8
	C485.5,315.5,426.5,315.2,420.9,314z"/>
<path fill-rule="evenodd" clip-rule="evenodd" fill="#F3EA05" d="M427.2,335.5c2.2,0.9,5.5,2.1,6.5,2.6c1,0.5,3.6,0.3,2.2-2.6
	c-1.4-2.9-4.3-4-5.5-5.3c-1.2-1.4-6-5.2-7.2-6.7c-1.2-1.5-8.9-8.8-10.5-9.5c-1.5-0.7-2.8-0.9-2.4,1.2c0.3,2.1,0.5,2.6,2.8,4
	c2.2,1.4,7.6,3.6,9.1,5.7C423.8,326.9,426.2,331.5,427.2,335.5z"/>
<path fill-rule="evenodd" clip-rule="evenodd" fill="#09824F" d="M422.2,333.9c1.2-1.7,1-2.6,0-3.6c-1-1-1.5-3.6-2.3-4.3
	c-0.8-0.7-4.8-1.5-4.4,0c0.4,1.5,0,2.7,0,2.7l-2.1-0.7c0,0-0.7-1.2-2.1-3.3c-1.4-2.1-4-1.2-3.6,0c0.3,1.2,1.8,5.5,2.5,5.9
	c0.7,0.3,4.4,1.2,6.1,2.1C418.1,333.6,420.9,333.8,422.2,333.9z"/>
<path fill-rule="evenodd" clip-rule="evenodd" fill="#F3EA05" d="M403,326c0.9-1.6,0.2-3.9-0.9-4.3c-1-0.4-2.8-1.8-2.8-1.8
	s-2.4-1.9-4-1.2c-1.5,0.7-0.2,3.3,0,4.8c0.2,1.4,4.5,2.1,6.7,2.5"/>
<path fill-rule="evenodd" clip-rule="evenodd" fill="#09824F" d="M397,314c0.7,2.4,3.4,2.6,4.3,3.6c0.9,1,2.2,2.4,3.4,2.2
	c1.2-0.2,2.9-0.3,3.1-1.2c0.2-0.9-0.5-3.7-2-5.1c-1.5-1.4-2.2-3-3.4-3S397.8,311.9,397,314z"/>
<path fill-rule="evenodd" clip-rule="evenodd" fill="#FFFFFF" d="M389.9,313.5c0,0,0.9,7.2,0,8.8c-3.1-1-31.6-10.1-43.3-10.1
	c-11.7,0-17.4,7.1-21.3,7.6c-4.1-1.6-4.5-4.8-6.2-7.6c1.2-2.6,2.6-2.8,5.7-4.3c3.1-1.5,11.3-3.7,23.2-3.7c11.9,0,14.4,5.1,20.1,5.1
	c0-0.9,0.7-2.2,0.7-2.2S388,312.5,389.9,313.5z"/>
<path fill-rule="evenodd" clip-rule="evenodd" fill="#FFFFFF" d="M317.2,308.7c2.4-1.2,18.1-8.1,22.2-8.3c-1.4-0.9-3.1-1.2-3.7-2.6
	c-1.1,0.2-2.7-0.3-3,0.9c0.2-1.7-0.2-2.9-0.2-2.9s-5.3,0-6.2,0c-0.7-0.3-2.3-1.4-3.4-1.2c2-1.7,3.6-4,3-4.8c-0.5-0.9-3.8,0.3-4.8,0
	c2.2-2.9,5.3-11-0.5-8.6c1.7-2.9,2.2-5,2.3-9.6c0.1-4.6-1.9-11.9-4.9-14.6c-0.5-3.6-0.9-4.5-0.9-4.5s-2,4-3.3,4.1
	c-0.6-1.5-0.9-4.6,0-6.2c-2-0.5-2.9-0.2-4.6,0c0.3-1.5-0.2-5.2,2.8-6.7c-3.6,0-5-0.3-6.4-1.1c1.7-1.5,2.8-3.9,2.8-5.8
	s-1.4-10.1-9.3-10.1c-7.9,0-15.6,8.1-15.6,17.7s6.7,20.8,15.8,20.8s7.4-7.7,7.1-11c2.6,0.9,3.4,4.3,3.4,6.5c0,2.2-3.3,8.1-10.7,8.1
	c-7.4,0-18.9-7.7-18.9-22c0-5.5,2.2-12.6,2.6-14.1c0.3-1.5-2.6-0.3-2.6-0.3v-1.7l-4.6,2.6c0,0-1-1.5-0.7-2.2
	c-1.4,0.7-4.8,1.5-4.8,1.5v-1.4l-5.8,0.7v-2.4c0,0-3.6,1.5-4.8,2.4c0-0.5-0.5-1.2,0-2.8c-1.4,0.3-5.7,1.9-5.8,2.4
	c0.9-2.4,2.6-4.6,2.2-6.2c-1.7,1.5-4.1,3.4-5.5,3.4c-1.4,0-7.2,0.9-6.4,3.4c1.7,2.6,24.8,24.2,28.7,28.5
	C286.6,272,310.1,302.6,317.2,308.7z"/>
<path fill-rule="evenodd" clip-rule="evenodd" fill="#223266" d="M293.6,247.3c0.3,3.8,2.8,5,4.8,5s1.5-0.9,1.5-1.4
	C300,248.8,295.3,248.5,293.6,247.3z"/>
<path fill-rule="evenodd" clip-rule="evenodd" fill="#223266" d="M293.6,240.2c-0.2,2.2,1.6,6.3,5.7,7.1c3,0.6,3.7-1.6,3.4-2.1
	C299,244.8,293.6,240.2,293.6,240.2z"/>
<path fill-rule="evenodd" clip-rule="evenodd" fill="#FFFFFF" d="M304.4,204.4v-0.7l-2.1,0.4v-3.4h-2.7V199l-1.4,0.5v-1.3l-0.8-1.7
	h-3.1v-2.7h-0.7l-0.5-1.9l-1.5-0.6l0.8-2.4c0,0-4.8,2-6.1,1.3c-0.1-2,1.3-4,2.1-4.5c-2,0.6-4.2,1.5-5.4,1.4c0.6-1.3,1.7-3.3,2.9-4.1
	c-0.9,0-1.5,0.8-2,0c0.8-2.1,4.6-5.7,27.6-15.1c2.2-0.9,3,0,4.9,1.2c1.9,1.2,33,18.8,36.3,20.7s18,11.4,21.6,13.3
	c3.6,1.9,24.5,16.7,27.4,19.5s11.1,7.5,11.2,11.2c0.1,3.7-2.5,5.6-2.1,8.6c0.4,3,5.4,10.2,5.2,12.1c-0.1,1.9-12.3,5.7-13.1,16.9
	c-5,1.4-28.1,8.1-32.3,14.4c3.6-0.4,23.5-9.2,37.2-9.2c3.6,0,4.8,0.5,4.8,2.6c0,2.1-3.8,3.3-5.7,3.6c-1.9,0.2-5.4,1.2-6.6,2
	c1.8,0.4,10.5,3.6,13,13c-3.8,1.1-7.6,3.2-20.5,3.2c-12.9,0-28,0.1-40.3-10.5c-1.4,0.6-2.4,1.3-2.4,1.3s-6.8-3.1-8.6-8.9
	c-1.3,0.2-3,0.4-3,0.4s1.7-8.3-2.9-9.5c0,1.3,0.5,2.1-0.7,2.1c-1.2,0-1.9-6.1-3.3-10.6c-1.4-4.5-10.7-19.4-7.7-28.6
	c-0.6,1-2.6,1.5-2.9,0.8c-0.2-0.7,1.1-4.5,0.6-6.2c-1,0.5-1.5,0.6-1.5,0.6s-0.8-3.2-0.1-4.3c-1.7,1-3.6,2-4.3,3.1
	c1.7-2.5,2-5,1.9-6.7c-1,0-1.9-0.7-1.9-0.7l1.8-0.2c0,0,0.4-3.7-19.3-6c-1.1-0.6-0.9-1.1,0-1.4c0.9-0.4,13.1-0.7,16.4,1.2
	c-1.5-2.7-3.8-4.5-10.5-5.5c1.9-1,6.9-0.8,9.1,0.5c-0.8-2.1-5.8-5-9.6-4.9c-1.5-0.6-0.2-1.3,0.2-1.4c0.5-0.1,2.4-1.2,2.9-1.1"/>
<path fill-rule="evenodd" clip-rule="evenodd" fill="#223266" d="M361.8,293.8c0.1-1.3-0.7-4.6,0.6-6.6c1.2-2,10.7-12,13-13.8
	c0.3-1,0.6-1.8,0-1.8c-0.6,0-6.7,5.3-8.3,6.4c-1.5,1.1-10.3,7.7-10.3,10.9C356.8,292.1,360.4,293.3,361.8,293.8z"/>
<path fill-rule="evenodd" clip-rule="evenodd" fill="#223266" d="M377.6,252.8c1.2,0.8,3,0.4,4.9-0.8c1.9-1.2,2.1-1.5,1.9-2.6
	C382.6,249.6,381.3,249.4,377.6,252.8z"/>
<path fill-rule="evenodd" clip-rule="evenodd" fill="#223266" d="M407.9,254c1.3,0.6,0.4,1.9,0,2.1c-0.4,0.2-5.4,3.6-7.3,3.6
	c-1.9,0-4.1-3.2-4.1-5s0-3.5,0-4.3c0-0.8,1.8-4.6,5.5-4.6c3.7,0,4.4,2.1,4.7,2.9c-0.6,0.4-1.3,0.7-1.3,0.7s-0.7-1.4-2.9-1.4
	c-2.2,0-4.2,1.9-4.2,5.8c0,1,1.7,1.4,2.2,1.4C401.1,255.2,404.2,254.2,407.9,254z"/>
<path fill-rule="evenodd" clip-rule="evenodd" fill="#223266" d="M406.2,235.7c-2.5,2.9-4,2.7-7.4,3.6c-3.4,1-11.1,7.7-18.3,7.7
	s-10.9-6.7-10.9-8.9c0-2.1,1.4-5.1,1.1-6.7c-1-0.1-2.6-1-2.6-2.8c0-1.8,1.4-2,2-2.2c0.6-0.2,7.1-2.2,7.9-2.5
	c-0.3-0.7-1.6-4.2-6.7-4.7c-0.4-1.4-1.4-3.4,0.7-3.6c-0.3-1-0.3-2.1-1.4-3c2,0.2,3.7,0,4.9,0.7c0.5-1.4,0-3.2,0-3.2s2.8,1.8,3.9,2
	c0.2-0.7,0.4-2,0.4-2s6.4,18.5,17.6,24.8C401.3,235.4,403.4,235.7,406.2,235.7z"/>
<path fill-rule="evenodd" clip-rule="evenodd" fill="#FFFFFF" d="M374.4,237.9c0,0.1,0,0.3,0,0.4c0.3,2.2,3.1,5.3,4.9,5.3
	c1.9,0,3.1-2.1,3.1-2.9c0-0.7,0-2.2,0-3.4c0-1.2,3.7-1.2,3.7-3c0-1.7-1.2-4.5-3.2-4.5c-2,0-7.3,4.6-8,5.4
	C374.2,236.2,374.3,237.5,374.4,237.9z"/>
<path fill="#223266" d="M374.3,151.9c-3.9-0.3-6.3,5.6-7.2,7.1s-2.4,3.8-3.6,5.2s-1.1,2.4,0,3.4c1.1,0.9,7.5,3.9,8.8,3.9
	c-0.9,2.2-2.6,3.4-2.6,3.4s-1.1,1.1,0,2.2s2.8,3.9,5.2,5.6c1.2,0.8,4.4-2.2,5.7-2.8c1.3-0.6,1.3-0.8,2.4,0.8
	c1.1,1.5,2.1,5.4,5.8,6.7s5.2,0,6.2-1.1s3.6-5.2,4.5-6.8s2.6-3,4.5-3.6s1.3-2.1,0-3.4s-4.5-3.9-6.1-5.1c2.1-1.3,5.6-8.1,4.6-9.4
	c-0.9-1.1-14.2-9.4-16.4-10.9c-1.9,0.6-5.1,5.6-5.9,7.6C379.7,156.1,376.4,152,374.3,151.9z"/>
<path fill="#09824F" d="M380.2,169.8c0.6,1-5,6.1-5.3,6.8c-0.3,0.7-0.3,3.8,2.4,2.3c2.6-1.6,5.6-7,6.1-7.6c1-0.2,1.7-0.2,1.6,0.9
	c-0.2,1.1,0.8,3.4,1.4,5.3c0.6,1.9,0.2,3.7,0.8,5c0.6,1.2,2.9,3.5,4.3,3.6s3-5.1,4.5-6.2c1.5-1.2,3.6-4.3,5-5.4
	c1.5-1.2-1.2-3.4-2.3-3.6c-1.2-0.1-9.9-0.1-11.6-1c0.2-1.2,0.5-2.4,2.2-3s3.3-0.2,5.3-1.2c2-1,4.4-2.7,3.9-3.8
	c-0.5-1.1-5.9-3.3-7.1-4.8s-4.2-4.9-5.5-4.1c-1.3,0.8-1.5,1-1.9,1.8s0.5,4.6,0.6,6.4c0.1,1.8,0.1,5-1.4,4.1s-6.2-7.1-7.2-8.8
	c-1-1-2.8-2.5-3.8,0.5c-1,3-1,2.7-2.2,4.4s-2.3,3-2.9,3.7c-0.6,0.7-2,2.6,1.3,3.3c3.3,0.7,5.2,0.5,7.2,0.5S379.4,168.6,380.2,169.8z
	"/>
</svg>
